<svg width="20" height="24" viewBox="0 0 20 24" fill="none" xmlns="http://www.w3.org/2000/svg">
  <path d="M17.7778 2.4H13.1333C12.6667 1.008 11.4444 0 10 0C8.55556 0 7.33333 1.008 6.86667 2.4H2.22222C1 2.4 0 3.48 0 4.8V21.6C0 22.92 1 24 2.22222 24H17.7778C19 24 20 22.92 20 21.6V4.8C20 3.48 19 2.4 17.7778 2.4ZM10 2.4C10.6111 2.4 11.1111 2.94 11.1111 3.6C11.1111 4.26 10.6111 4.8 10 4.8C9.38889 4.8 8.88889 4.26 8.88889 3.6C8.88889 2.94 9.38889 2.4 10 2.4ZM6.98889 18.348L4.11111 15.24C3.67778 14.772 3.67778 14.016 4.11111 13.548C4.54444 13.08 5.24444 13.08 5.67778 13.548L7.77778 15.804L14.3111 8.748C14.7444 8.28 15.4444 8.28 15.8778 8.748C16.3111 9.216 16.3111 9.972 15.8778 10.44L8.55556 18.348C8.13333 18.816 7.42222 18.816 6.98889 18.348Z" fill="white"/>
</svg>
